<?xml version="1.0" encoding="UTF-8" standalone="no"?>
<!-- Created with Inkscape (http://www.inkscape.org/) -->

<svg
   width="264.84665mm"
   height="43.200104mm"
   viewBox="0 0 264.84665 43.200104"
   version="1.1"
   id="svg5"
   xml:space="preserve"
   inkscape:version="1.2.1 (9c6d41e410, 2022-07-14)"
   sodipodi:docname="EU_EIC_COLOR.svg"
   inkscape:export-filename="EU_EIC_COLOR.png"
   inkscape:export-xdpi="300"
   inkscape:export-ydpi="300"
   xmlns:inkscape="http://www.inkscape.org/namespaces/inkscape"
   xmlns:sodipodi="http://sodipodi.sourceforge.net/DTD/sodipodi-0.dtd"
   xmlns="http://www.w3.org/2000/svg"
   xmlns:svg="http://www.w3.org/2000/svg"><sodipodi:namedview
     id="namedview7"
     pagecolor="#ffffff"
     bordercolor="#000000"
     borderopacity="0.25"
     inkscape:showpageshadow="2"
     inkscape:pageopacity="0.0"
     inkscape:pagecheckerboard="0"
     inkscape:deskcolor="#d1d1d1"
     inkscape:document-units="mm"
     showgrid="false"
     inkscape:zoom="1.1893044"
     inkscape:cx="1083.8268"
     inkscape:cy="-131.16911"
     inkscape:window-width="3440"
     inkscape:window-height="1334"
     inkscape:window-x="-11"
     inkscape:window-y="-11"
     inkscape:window-maximized="1"
     inkscape:current-layer="svg5" /><defs
     id="defs2"><clipPath
       clipPathUnits="userSpaceOnUse"
       id="clipPath2376"><g
         id="g2380"><path
           clip-rule="nonzero"
           d="m 194.46407,-280.55533 h 63.5 v 43.2015 h -63.5 z m 0,0"
           id="path2378"
           style="stroke-width:0.352778" /></g></clipPath></defs><g
     id="use1067"
     transform="matrix(0.35277778,0,0,0.35277778,134.92904,19.931197)"
     style="fill:#003399;fill-opacity:1"><path
       d="m 3.078125,0 h 5.5625 V -10.765625 H 19.71875 v -5.03125 H 8.640625 v -7.609375 h 13.28125 v -5 H 3.078125 Z m 0,0"
       id="path2261"
       style="fill:#003399;fill-opacity:1" /></g><g
     id="use1071"
     transform="matrix(0.35277778,0,0,0.35277778,142.78904,19.931197)"
     style="fill:#003399;fill-opacity:1"><path
       d="m 9.4375,0.359375 c 2.203125,0 4.28125,-0.921875 5.765625,-2.71875 L 15.28125,-2.3125 V 0 h 5.28125 v -19.5625 h -5.28125 v 9.515625 c 0,3.765625 -2.046875,5.6875 -4.328125,5.6875 C 8.515625,-4.359375 7.4375,-5.5625 7.4375,-9.125 V -19.5625 H 2.234375 v 11.796875 c 0,5.96875 2.96875,8.125 7.203125,8.125 z m 0,0"
       id="path2265"
       style="fill:#003399;fill-opacity:1" /></g><g
     id="use1073"
     transform="matrix(0.35277778,0,0,0.35277778,150.90292,19.931197)"
     style="fill:#003399;fill-opacity:1"><path
       d="m 2.59375,0 h 5.25 v -9.796875 c 0,-3.515625 1.75,-5.359375 4.390625,-5.359375 C 14.6875,-15.15625 16,-14 16,-10.28125 V 0 h 5.234375 v -11.59375 c 0,-6 -2.921875,-8.25 -7.078125,-8.25 -2.4375,0 -4.671875,0.96875 -6.234375,2.796875 H 7.84375 V -19.5625 h -5.25 z m 0,0"
       id="path2269"
       style="fill:#003399;fill-opacity:1" /></g><g
     id="use1075"
     transform="matrix(0.35277778,0,0,0.35277778,159.20025,19.931197)"
     style="fill:#003399;fill-opacity:1"><path
       d="m 10.84375,0.359375 c 2.640625,0 4.671875,-1 6.03125,-2.765625 h 0.04687 V 0 h 5 v -29.4375 h -5.20312 v 12.15625 h -0.07813 c -1.4375,-1.671875 -3.515625,-2.5625 -5.921875,-2.5625 -5.234375,0 -9.234375,4.203125 -9.234375,10.125 0,6.03125 3.953125,10.078125 9.359375,10.078125 z m 0.953125,-4.71875 c -2.921875,0 -5,-2.203125 -5,-5.328125 0,-3.359375 2.203125,-5.46875 5,-5.46875 3,0 5.125,2.3125 5.125,5.46875 0,3.203125 -2.234375,5.328125 -5.125,5.328125 z m 0,0"
       id="path2273"
       style="fill:#003399;fill-opacity:1" /></g><g
     id="use1079"
     transform="matrix(0.35277778,0,0,0.35277778,167.85018,19.931197)"
     style="fill:#003399;fill-opacity:1"><path
       d="m 20.796875,-9.953125 c 0,-5.734375 -3.84375,-9.890625 -9.359375,-9.890625 -5.796875,0 -9.921875,4.078125 -9.921875,10.046875 0,6.109375 4.25,10.15625 10.25,10.15625 4.359375,0 6.875,-1.59375 8.515625,-3.71875 L 16.875,-6.515625 c -1.03125,1.28125 -2.5625,2.203125 -4.75,2.203125 -2.640625,0 -4.53125,-1.40625 -5.171875,-3.765625 H 20.6875 c 0.03125,-0.328125 0.109375,-1.234375 0.109375,-1.875 z M 11.40625,-15.28125 c 2.28125,0 3.671875,1.359375 4.1875,3.4375 H 7 c 0.59375,-2.234375 2.28125,-3.4375 4.40625,-3.4375 z m 0,0"
       id="path2277"
       style="fill:#003399;fill-opacity:1" /></g><g
     id="use1081"
     transform="matrix(0.35277778,0,0,0.35277778,175.71007,19.931197)"
     style="fill:#003399;fill-opacity:1"><path
       d="m 10.84375,0.359375 c 2.640625,0 4.671875,-1 6.03125,-2.765625 h 0.04687 V 0 h 5 v -29.4375 h -5.20312 v 12.15625 h -0.07813 c -1.4375,-1.671875 -3.515625,-2.5625 -5.921875,-2.5625 -5.234375,0 -9.234375,4.203125 -9.234375,10.125 0,6.03125 3.953125,10.078125 9.359375,10.078125 z m 0.953125,-4.71875 c -2.921875,0 -5,-2.203125 -5,-5.328125 0,-3.359375 2.203125,-5.46875 5,-5.46875 3,0 5.125,2.3125 5.125,5.46875 0,3.203125 -2.234375,5.328125 -5.125,5.328125 z m 0,0"
       id="path2281"
       style="fill:#003399;fill-opacity:1" /></g><g
     id="use1089"
     transform="matrix(0.35277778,0,0,0.35277778,187.98631,19.931197)"
     style="fill:#003399;fill-opacity:1"><path
       d="m 13.640625,0.359375 c 5.4375,0 9.40625,-4.046875 9.40625,-10.078125 0,-5.921875 -3.96875,-10.125 -9.25,-10.125 -2.390625,0 -4.4375,0.84375 -5.921875,2.53125 H 7.84375 v -12.125 h -5.25 V 0 H 7.5625 V -2.359375 L 7.640625,-2.40625 c 1.40625,1.8125 3.359375,2.765625 6,2.765625 z m -0.921875,-4.71875 c -2.875,0 -5.125,-2.125 -5.125,-5.328125 0,-3.15625 2.09375,-5.46875 5.09375,-5.46875 2.796875,0 5.03125,2.109375 5.03125,5.46875 0,3.125 -2.078125,5.328125 -5,5.328125 z m 0,0"
       id="path2285"
       style="fill:#003399;fill-opacity:1" /></g><g
     id="use1093"
     transform="matrix(0.35277778,0,0,0.35277778,196.19907,19.931197)"
     style="fill:#003399;fill-opacity:1"><path
       d="M 4.953125,7.921875 H 10.28125 L 20.796875,-19.5625 h -5.3125 l -4.4375,12 h -0.09375 l -4.75,-12 H 0.59375 L 8.4375,-1.203125 Z m 0,0"
       id="path2289"
       style="fill:#003399;fill-opacity:1" /></g><g
     id="use1097"
     transform="matrix(0.35277778,0,0,0.35277778,134.73073,35.437967)"
     style="fill:#003399;fill-opacity:1"><path
       d="m 8.640625,0.359375 c 2.640625,0 3.921875,-0.5625 5.15625,-1.234375 l -1.3125,-4.203125 C 11.59375,-4.640625 10.640625,-4.40625 10,-4.40625 c -1.234375,0 -1.6875,-0.796875 -1.6875,-2.515625 v -8.28125 h 5.28125 V -19.5625 H 8.3125 v -6.921875 l -5.234375,0.5625 v 6.359375 h -2.3125 v 4.359375 h 2.3125 v 9.046875 c 0,4.390625 2.203125,6.515625 5.5625,6.515625 z m 0,0"
       id="path2293"
       style="fill:#003399;fill-opacity:1" /></g><g
     id="use1099"
     transform="matrix(0.35277778,0,0,0.35277778,139.93773,35.437967)"
     style="fill:#003399;fill-opacity:1"><path
       d="m 2.59375,0 h 5.25 v -9.875 c 0,-3.53125 1.75,-5.28125 4.5625,-5.28125 2.46875,0 3.796875,1.203125 3.796875,4.75 V 0 H 21.4375 v -11.71875 c 0,-6 -3,-8.125 -7.15625,-8.125 -2.5625,0 -4.796875,0.890625 -6.40625,2.640625 H 7.84375 V -29.4375 h -5.25 z m 0,0"
       id="path2297"
       style="fill:#003399;fill-opacity:1" /></g><g
     id="use1101"
     transform="matrix(0.35277778,0,0,0.35277778,148.30562,35.437967)"
     style="fill:#003399;fill-opacity:1"><path
       d="m 20.796875,-9.953125 c 0,-5.734375 -3.84375,-9.890625 -9.359375,-9.890625 -5.796875,0 -9.921875,4.078125 -9.921875,10.046875 0,6.109375 4.25,10.15625 10.25,10.15625 4.359375,0 6.875,-1.59375 8.515625,-3.71875 L 16.875,-6.515625 c -1.03125,1.28125 -2.5625,2.203125 -4.75,2.203125 -2.640625,0 -4.53125,-1.40625 -5.171875,-3.765625 H 20.6875 c 0.03125,-0.328125 0.109375,-1.234375 0.109375,-1.875 z M 11.40625,-15.28125 c 2.28125,0 3.671875,1.359375 4.1875,3.4375 H 7 c 0.59375,-2.234375 2.28125,-3.4375 4.40625,-3.4375 z m 0,0"
       id="path2301"
       style="fill:#003399;fill-opacity:1" /></g><g
     id="use1105"
     transform="matrix(0.35277778,0,0,0.35277778,159.79207,35.437967)"
     style="fill:#003399;fill-opacity:1"><path
       d="m 3.078125,0 h 19 v -5 h -13.4375 v -6.640625 H 18.71875 V -16.5625 H 8.640625 v -6.84375 h 12.59375 v -5 H 3.078125 Z m 0,0"
       id="path2307"
       style="fill:#003399;fill-opacity:1" /></g><g
     id="use1107"
     transform="matrix(0.35277778,0,0,0.35277778,168.23052,35.437967)"
     style="fill:#003399;fill-opacity:1"><path
       d="m 9.4375,0.359375 c 2.203125,0 4.28125,-0.921875 5.765625,-2.71875 L 15.28125,-2.3125 V 0 h 5.28125 v -19.5625 h -5.28125 v 9.515625 c 0,3.765625 -2.046875,5.6875 -4.328125,5.6875 C 8.515625,-4.359375 7.4375,-5.5625 7.4375,-9.125 V -19.5625 H 2.234375 v 11.796875 c 0,5.96875 2.96875,8.125 7.203125,8.125 z m 0,0"
       id="path2311"
       style="fill:#003399;fill-opacity:1" /></g><g
     id="use1109"
     transform="matrix(0.35277778,0,0,0.35277778,176.3444,35.437967)"
     style="fill:#003399;fill-opacity:1"><path
       d="m 2.59375,0 h 5.25 v -9.046875 c 0,-2.953125 1.71875,-5.109375 4.953125,-5.109375 0.328125,0 0.84375,0 1.40625,0.03125 v -5.71875 h -0.40625 c -2.28125,0 -4.390625,1.125 -5.875,3.125 H 7.84375 v -2.84375 h -5.25 z m 0,0"
       id="path2315"
       style="fill:#003399;fill-opacity:1" /></g><g
     id="use1113"
     transform="matrix(0.35277778,0,0,0.35277778,181.41044,35.437967)"
     style="fill:#003399;fill-opacity:1"><path
       d="m 11.921875,0.359375 c 6.078125,0 10.359375,-4.15625 10.359375,-10.125 0,-6 -4.28125,-10.078125 -10.359375,-10.078125 -6.234375,0 -10.40625,4.25 -10.40625,10.078125 0,5.84375 4.171875,10.125 10.40625,10.125 z m 0,-4.71875 c -3,0 -5.078125,-2.359375 -5.078125,-5.40625 0,-3.078125 2.03125,-5.390625 5.078125,-5.390625 2.875,0 5.03125,2.203125 5.03125,5.390625 0,3.203125 -2.234375,5.40625 -5.03125,5.40625 z m 0,0"
       id="path2319"
       style="fill:#003399;fill-opacity:1" /></g><g
     id="use1115"
     transform="matrix(0.35277778,0,0,0.35277778,189.80655,35.437967)"
     style="fill:#003399;fill-opacity:1"><path
       d="m 2.59375,7.921875 h 5.25 V -2.15625 l 0.078125,-0.046875 c 1.359375,1.640625 3.28125,2.5625 5.71875,2.5625 5.4375,0 9.40625,-4.046875 9.40625,-10.078125 0,-5.921875 -3.96875,-10.125 -9.25,-10.125 -2.390625,0 -4.484375,0.890625 -5.875,2.53125 H 7.84375 v -2.25 h -5.25 z m 10.125,-12.28125 c -2.875,0 -5.125,-2.125 -5.125,-5.328125 0,-3.15625 2.09375,-5.46875 5.09375,-5.46875 2.796875,0 5.03125,2.109375 5.03125,5.46875 0,3.125 -2.078125,5.328125 -5,5.328125 z m 0,0"
       id="path2323"
       style="fill:#003399;fill-opacity:1" /></g><g
     id="use1117"
     transform="matrix(0.35277778,0,0,0.35277778,198.47077,35.437967)"
     style="fill:#003399;fill-opacity:1"><path
       d="m 20.796875,-9.953125 c 0,-5.734375 -3.84375,-9.890625 -9.359375,-9.890625 -5.796875,0 -9.921875,4.078125 -9.921875,10.046875 0,6.109375 4.25,10.15625 10.25,10.15625 4.359375,0 6.875,-1.59375 8.515625,-3.71875 L 16.875,-6.515625 c -1.03125,1.28125 -2.5625,2.203125 -4.75,2.203125 -2.640625,0 -4.53125,-1.40625 -5.171875,-3.765625 H 20.6875 c 0.03125,-0.328125 0.109375,-1.234375 0.109375,-1.875 z M 11.40625,-15.28125 c 2.28125,0 3.671875,1.359375 4.1875,3.4375 H 7 c 0.59375,-2.234375 2.28125,-3.4375 4.40625,-3.4375 z m 0,0"
       id="path2327"
       style="fill:#003399;fill-opacity:1" /></g><g
     id="use1121"
     transform="matrix(0.35277778,0,0,0.35277778,206.33043,35.437967)"
     style="fill:#003399;fill-opacity:1"><path
       d="m 10.796875,0.359375 c 2.5625,0 4.515625,-0.953125 5.890625,-2.71875 L 16.76563,-2.3125 V 0 h 5 v -19.5625 h -5.25 v 2.25 l -0.07813,0.03125 c -1.390625,-1.671875 -3.484375,-2.5625 -5.75,-2.5625 -5.25,0 -9.203125,4.203125 -9.203125,10.125 0,6.03125 3.953125,10.078125 9.3125,10.078125 z m 1,-4.71875 c -2.953125,0 -5,-2.203125 -5,-5.328125 0,-3.359375 2.15625,-5.46875 5,-5.46875 2.796875,0 4.96875,2.3125 4.96875,5.46875 0,3.203125 -2.28125,5.328125 -4.96875,5.328125 z m 0,0"
       id="path2331"
       style="fill:#003399;fill-opacity:1" /></g><g
     id="use1125"
     transform="matrix(0.35277778,0,0,0.35277778,214.85323,35.437967)"
     style="fill:#003399;fill-opacity:1"><path
       d="m 2.59375,0 h 5.25 v -9.796875 c 0,-3.515625 1.75,-5.359375 4.390625,-5.359375 C 14.6875,-15.15625 16,-14 16,-10.28125 V 0 h 5.234375 v -11.59375 c 0,-6 -2.921875,-8.25 -7.078125,-8.25 -2.4375,0 -4.671875,0.96875 -6.234375,2.796875 H 7.84375 V -19.5625 h -5.25 z m 0,0"
       id="path2335"
       style="fill:#003399;fill-opacity:1" /></g><g
     id="use1131"
     transform="matrix(0.35277778,0,0,0.35277778,226.77688,35.437967)"
     style="fill:#003399;fill-opacity:1"><path
       d="m 14.203125,0.359375 c 7.28125,0 11.5625,-4.71875 11.5625,-12.125 V -28.40625 H 20.125 V -12.125 c 0,4.53125 -2.484375,7.203125 -5.921875,7.203125 -3.765625,0 -5.84375,-3.125 -5.84375,-7.203125 V -28.40625 H 2.71875 v 16.640625 c 0,7.765625 4.640625,12.125 11.484375,12.125 z m 0,0"
       id="path2341"
       style="fill:#003399;fill-opacity:1" /></g><g
     id="use1133"
     transform="matrix(0.35277778,0,0,0.35277778,236.80988,35.437967)"
     style="fill:#003399;fill-opacity:1"><path
       d="m 2.59375,0 h 5.25 v -9.796875 c 0,-3.515625 1.75,-5.359375 4.390625,-5.359375 C 14.6875,-15.15625 16,-14 16,-10.28125 V 0 h 5.234375 v -11.59375 c 0,-6 -2.921875,-8.25 -7.078125,-8.25 -2.4375,0 -4.671875,0.96875 -6.234375,2.796875 H 7.84375 V -19.5625 h -5.25 z m 0,0"
       id="path2345"
       style="fill:#003399;fill-opacity:1" /></g><g
     id="use1135"
     transform="matrix(0.35277778,0,0,0.35277778,245.10722,35.437967)"
     style="fill:#003399;fill-opacity:1"><path
       d="m 5.515625,-22.203125 c 1.890625,0 3.328125,-1.4375 3.328125,-3.234375 0,-1.765625 -1.4375,-3.203125 -3.328125,-3.203125 -1.921875,0 -3.3125,1.4375 -3.3125,3.203125 0,1.796875 1.390625,3.234375 3.3125,3.234375 z M 2.84375,0 H 8.078125 V -19.5625 H 2.84375 Z m 0,0"
       id="path2349"
       style="fill:#003399;fill-opacity:1" /></g><g
     id="use1137"
     transform="matrix(0.35277778,0,0,0.35277778,248.95955,35.437967)"
     style="fill:#003399;fill-opacity:1"><path
       d="m 11.921875,0.359375 c 6.078125,0 10.359375,-4.15625 10.359375,-10.125 0,-6 -4.28125,-10.078125 -10.359375,-10.078125 -6.234375,0 -10.40625,4.25 -10.40625,10.078125 0,5.84375 4.171875,10.125 10.40625,10.125 z m 0,-4.71875 c -3,0 -5.078125,-2.359375 -5.078125,-5.40625 0,-3.078125 2.03125,-5.390625 5.078125,-5.390625 2.875,0 5.03125,2.203125 5.03125,5.390625 0,3.203125 -2.234375,5.40625 -5.03125,5.40625 z m 0,0"
       id="path2353"
       style="fill:#003399;fill-opacity:1" /></g><g
     id="use1139"
     transform="matrix(0.35277778,0,0,0.35277778,257.35565,35.437967)"
     style="fill:#003399;fill-opacity:1"><path
       d="m 2.59375,0 h 5.25 v -9.796875 c 0,-3.515625 1.75,-5.359375 4.390625,-5.359375 C 14.6875,-15.15625 16,-14 16,-10.28125 V 0 h 5.234375 v -11.59375 c 0,-6 -2.921875,-8.25 -7.078125,-8.25 -2.4375,0 -4.671875,0.96875 -6.234375,2.796875 H 7.84375 V -19.5625 h -5.25 z m 0,0"
       id="path2357"
       style="fill:#003399;fill-opacity:1" /></g><path
     fill-rule="nonzero"
     fill="#ffffff"
     fill-opacity="1"
     d="m 194.54399,-237.35383 h 63.20097 v -43.20012 h -63.20097 v 43.20012"
     id="path1143"
     style="stroke-width:0.352778"
     clip-path="url(#clipPath2376)"
     transform="translate(-129.20018,280.55395)" /><path
     fill-rule="nonzero"
     fill="#4c379b"
     fill-opacity="1"
     d="m 5.279257,4.0996572 h 5.28202 v 0.9729 h -4.21404 v 2.87734 h 3.46164 v 0.97152 h -3.46164 v 2.8291098 h 4.46898 v 0.97152 H 5.279257 V 4.0996572"
     id="path1147"
     style="stroke-width:0.352778" /><path
     fill-rule="nonzero"
     fill="#4c379b"
     fill-opacity="1"
     d="m 17.168977,6.8088772 v 5.9131698 h -0.98392 v -0.98392 h -0.0124 c -0.47266,0.68075 -1.17684,1.05695 -1.94165,1.05695 -1.3615,0 -2.22278,-0.77721 -2.22278,-2.46531 V 6.8088772 h 0.98392 v 3.2425298 c 0,1.34772 0.49747,1.84519 1.44419,1.84519 0.93568,0 1.74873,-0.81304 1.74873,-2.2227698 v -2.86495 h 0.98392"
     id="path1149"
     style="stroke-width:0.352778" /><path
     fill-rule="nonzero"
     fill="#4c379b"
     fill-opacity="1"
     d="m 22.103727,6.7482472 v 1.09279 c -0.13229,-0.0124 -0.29076,-0.0248 -0.3886,-0.0248 -1.11621,0 -1.79697,0.86265 -1.79697,2.0519 v 2.8539198 h -0.98392 V 6.8088872 h 0.98392 v 1.04456 h 0.0124 c 0.43684,-0.70556 1.12999,-1.11759 1.93063,-1.11759 0.0978,0 0.1819,0 0.24253,0.0124"
     id="path1151"
     style="stroke-width:0.352778" /><path
     fill-rule="nonzero"
     fill="#4c379b"
     fill-opacity="1"
     d="m 27.851527,9.7716672 c 0,-1.26366 -0.89848,-2.12494 -2.04087,-2.12494 -1.23748,0 -2.06431,0.94671 -2.06431,2.12494 0,1.1782198 0.83785,2.1249298 2.06431,2.1249298 1.14239,0 2.04087,-0.87367 2.04087,-2.1249298 z m -5.10012,0 c 0,-1.7005 1.21405,-3.03582 3.05925,-3.03582 1.7377,0 3.03719,1.23886 3.03719,3.03582 0,1.7969598 -1.29949,3.0234098 -3.03719,3.0234098 -1.8452,0 -3.05925,-1.32291 -3.05925,-3.0234098"
     id="path1153"
     style="stroke-width:0.352778" /><path
     fill-rule="nonzero"
     fill="#4c379b"
     fill-opacity="1"
     d="m 35.222657,9.8074972 c 0,-1.31052 -0.87368,-2.16077 -2.00367,-2.16077 -1.11759,0 -1.95544,0.94671 -1.95544,2.16077 0,1.2512498 0.92329,2.0890998 1.96784,2.0890998 1.20165,0 1.99127,-0.89848 1.99127,-2.0890998 z m 0.99632,0 c 0,1.8093598 -1.26366,2.9875798 -2.89113,2.9875798 -0.83784,0 -1.54202,-0.3514 -2.01469,-0.94671 h -0.0248 v 3.27835 h -0.97152 V 6.8088772 h 0.98392 v 0.87368 h 0.0124 c 0.49748,-0.61874 1.22508,-0.94671 2.0147,-0.94671 1.67707,0 2.89112,1.32292 2.89112,3.07165"
     id="path1155"
     style="stroke-width:0.352778" /><path
     fill-rule="nonzero"
     fill="#4c379b"
     fill-opacity="1"
     d="m 38.360447,9.2617872 h 3.5705 c -0.15848,-0.97151 -0.77722,-1.61506 -1.72393,-1.61506 -0.92328,0 -1.66467,0.60634 -1.84657,1.61506 z m 4.51859,0.8130498 h -4.55442 c 0.13367,1.10518 0.91088,1.82176 1.97886,1.82176 0.74139,0 1.29949,-0.34037 1.66467,-0.80202 l 0.69178,0.59532 c -0.50988,0.65594 -1.31189,1.10518 -2.39228,1.10518 -1.67569,0 -2.93935,-1.22645 -2.93935,-3.0234098 0,-1.78594 1.22645,-3.03582 2.83049,-3.03582 1.65089,0 2.74367,1.23886 2.74367,2.93798 0,0.15847 -0.0234,0.3651798 -0.0234,0.4010098"
     id="path1157"
     style="stroke-width:0.352778" /><path
     fill-rule="nonzero"
     fill="#4c379b"
     fill-opacity="1"
     d="m 48.961697,9.8074972 c 0,-1.21406 -0.83785,-2.16077 -1.97886,-2.16077 -1.11759,0 -2.00367,0.85025 -2.00367,2.16077 0,1.1906198 0.78961,2.0890998 1.99126,2.0890998 1.06936,0 1.99127,-0.83785 1.99127,-2.0890998 z m 0.94809,-2.99862 v 5.9131698 h -0.94809 v -0.93431 h -0.011 c -0.47405,0.63114 -1.20303,1.00734 -2.06568,1.00734 -1.63849,0 -2.90215,-1.17822 -2.90215,-2.9875798 0,-1.74873 1.21543,-3.07165 2.89113,-3.07165 0.81304,0 1.54202,0.339 2.03949,0.95911 h 0.0124 v -0.88608 h 0.98393"
     id="path1159"
     style="stroke-width:0.352778" /><path
     fill-rule="nonzero"
     fill="#4c379b"
     fill-opacity="1"
     d="m 56.946047,9.2135572 v 3.5084898 h -0.98392 V 9.4919272 c 0,-1.38356 -0.58291,-1.8452 -1.44556,-1.8452 -1.11759,0 -1.8576,0.78962 -1.8576,2.12494 v 2.9503798 h -0.98391 V 6.8088772 h 0.98391 v 1.03216 h 0.0124 c 0.49747,-0.70418 1.27469,-1.10519 2.14836,-1.10519 1.27607,0 2.12631,0.78961 2.12631,2.47771"
     id="path1161"
     style="stroke-width:0.352778" /><path
     fill-rule="nonzero"
     fill="#4c379b"
     fill-opacity="1"
     d="M -3.0265147e-6,17.290237 H 1.067977 v 8.62101 H -3.0265147e-6 v -8.62101"
     id="path1163"
     style="stroke-width:0.352778" /><path
     fill-rule="nonzero"
     fill="#4c379b"
     fill-opacity="1"
     d="m 8.353667,22.402767 v 3.50848 h -0.98392 v -3.23012 c 0,-1.38355 -0.58291,-1.84519 -1.44556,-1.84519 -1.11621,0 -1.8576,0.78961 -1.8576,2.12493 v 2.95038 h -0.98392 v -5.91316 h 0.98392 v 1.03215 h 0.0124 c 0.49748,-0.70418 1.27469,-1.10519 2.14837,-1.10519 1.27606,0 2.12631,0.78962 2.12631,2.47772"
     id="path1165"
     style="stroke-width:0.352778" /><path
     fill-rule="nonzero"
     fill="#4c379b"
     fill-opacity="1"
     d="m 15.360987,22.402767 v 3.50848 h -0.98392 v -3.23012 c 0,-1.38355 -0.58291,-1.84519 -1.44418,-1.84519 -1.11759,0 -1.85897,0.78961 -1.85897,2.12493 v 2.95038 h -0.98255 v -5.91316 h 0.98255 v 1.03215 h 0.0124 c 0.49885,-0.70418 1.27468,-1.10519 2.14974,-1.10519 1.27468,0 2.12493,0.78962 2.12493,2.47772"
     id="path1167"
     style="stroke-width:0.352778" /><path
     fill-rule="nonzero"
     fill="#4c379b"
     fill-opacity="1"
     d="m 21.829497,22.960867 c 0,-1.26228 -0.89848,-2.12493 -2.04087,-2.12493 -1.23886,0 -2.0643,0.94671 -2.0643,2.12493 0,1.17822 0.83784,2.12494 2.0643,2.12494 1.14239,0 2.04087,-0.87368 2.04087,-2.12494 z m -5.10149,0 c 0,-1.7005 1.21543,-3.03582 3.06062,-3.03582 1.73633,0 3.03582,1.23886 3.03582,3.03582 0,1.79696 -1.29949,3.02342 -3.03582,3.02342 -1.84519,0 -3.06062,-1.32292 -3.06062,-3.02342"
     id="path1169"
     style="stroke-width:0.352778" /><path
     fill-rule="nonzero"
     fill="#4c379b"
     fill-opacity="1"
     d="m 29.113807,19.998087 -2.40467,5.91316 h -0.94672 l -2.41707,-5.91316 h 1.05695 l 1.82177,4.66328 h 0.0358 l 1.78593,-4.66328 h 1.06798"
     id="path1171"
     style="stroke-width:0.352778" /><path
     fill-rule="nonzero"
     fill="#4c379b"
     fill-opacity="1"
     d="m 34.606667,22.998077 c 0,-1.21543 -0.83784,-2.16214 -1.98024,-2.16214 -1.11621,0 -2.00366,0.85025 -2.00366,2.16214 0,1.18924 0.78961,2.08773 1.99264,2.08773 1.06798,0 1.99126,-0.83785 1.99126,-2.08773 z m 0.94672,-2.99999 v 5.91316 h -0.94672 v -0.93431 h -0.0124 c -0.47404,0.63114 -1.20165,1.00735 -2.0643,1.00735 -1.63987,0 -2.90215,-1.17823 -2.90215,-2.98621 0,-1.74873 1.21405,-3.07303 2.88975,-3.07303 0.81304,0 1.54202,0.34038 2.04087,0.95912 h 0.011 v -0.88608 h 0.98392"
     id="path1173"
     style="stroke-width:0.352778" /><path
     fill-rule="nonzero"
     fill="#4c379b"
     fill-opacity="1"
     d="m 37.495037,24.151497 v -3.30316 h -0.75241 v -0.85025 h 0.75241 v -2.01607 l 0.98392,-0.10887 v 2.12494 h 1.96784 v 0.85025 h -1.96784 v 3.15708 c 0,0.70418 0.1695,1.05696 0.72898,1.05696 0.3514,0 0.71658,-0.14607 0.99495,-0.30455 l 0.26734,0.86265 c -0.32798,0.18191 -0.74001,0.36381 -1.43316,0.36381 -1.05696,0 -1.54203,-0.64355 -1.54203,-1.83279"
     id="path1175"
     style="stroke-width:0.352778" /><path
     fill-rule="nonzero"
     fill="#4c379b"
     fill-opacity="1"
     d="m 41.670497,19.998087 h 0.98254 v 5.91316 h -0.98254 z m -0.20671,-1.78456 c 0,-0.37758 0.30317,-0.69315 0.70418,-0.69315 0.3886,0 0.70418,0.31557 0.70418,0.69315 0,0.38861 -0.31558,0.69177 -0.70418,0.69177 -0.40101,0 -0.70418,-0.30316 -0.70418,-0.69177"
     id="path1177"
     style="stroke-width:0.352778" /><path
     fill-rule="nonzero"
     fill="#4c379b"
     fill-opacity="1"
     d="m 49.215257,22.960867 c 0,-1.26228 -0.89848,-2.12493 -2.0395,-2.12493 -1.23886,0 -2.06568,0.94671 -2.06568,2.12493 0,1.17822 0.83923,2.12494 2.06568,2.12494 1.14102,0 2.0395,-0.87368 2.0395,-2.12494 z m -5.10012,0 c 0,-1.7005 1.21405,-3.03582 3.06062,-3.03582 1.73633,0 3.03582,1.23886 3.03582,3.03582 0,1.79696 -1.29949,3.02342 -3.03582,3.02342 -1.84657,0 -3.06062,-1.32292 -3.06062,-3.02342"
     id="path1179"
     style="stroke-width:0.352778" /><path
     fill-rule="nonzero"
     fill="#4c379b"
     fill-opacity="1"
     d="m 56.944667,22.402767 v 3.50848 h -0.98392 v -3.23012 c 0,-1.38355 -0.58291,-1.84519 -1.44418,-1.84519 -1.11759,0 -1.85898,0.78961 -1.85898,2.12493 v 2.95038 h -0.98253 v -5.91316 h 0.98253 v 1.03215 h 0.0124 c 0.49885,-0.70418 1.27469,-1.10519 2.14974,-1.10519 1.27469,0 2.12494,0.78962 2.12494,2.47772"
     id="path1181"
     style="stroke-width:0.352778" /><path
     fill-rule="nonzero"
     fill="#4c379b"
     fill-opacity="1"
     d="m 16.831357,34.824397 c 0,-2.45291 1.531,-4.43177 4.29948,-4.43177 1.19062,0 2.4281,0.48507 3.36379,1.65089 l -0.78962,0.65595 c -0.65594,-0.82545 -1.57923,-1.29949 -2.57417,-1.29949 -1.96784,0 -3.19429,1.42075 -3.19429,3.42442 0,2.05328 1.37252,3.32796 3.19429,3.32796 1.11759,0 1.96646,-0.53467 2.57417,-1.28708 l 0.78962,0.66835 c -0.75241,0.93431 -1.84657,1.62608 -3.36379,1.62608 -2.33164,0 -4.29948,-1.51722 -4.29948,-4.33531"
     id="path1183"
     style="stroke-width:0.352778" /><path
     fill-rule="nonzero"
     fill="#4c379b"
     fill-opacity="1"
     d="m 30.592447,36.148697 c 0,-1.26366 -0.89848,-2.12494 -2.04088,-2.12494 -1.23885,0 -2.0643,0.94671 -2.0643,2.12494 0,1.17822 0.83785,2.12493 2.0643,2.12493 1.1424,0 2.04088,-0.87368 2.04088,-2.12493 z m -5.10012,0 c 0,-1.7005 1.21405,-3.03582 3.05924,-3.03582 1.73771,0 3.03582,1.23885 3.03582,3.03582 0,1.79696 -1.29811,3.02341 -3.03582,3.02341 -1.84519,0 -3.05924,-1.32291 -3.05924,-3.02341"
     id="path1185"
     style="stroke-width:0.352778" /><path
     fill-rule="nonzero"
     fill="#4c379b"
     fill-opacity="1"
     d="m 38.111017,33.185907 v 5.91317 h -0.98391 v -0.98255 h -0.0124 c -0.47405,0.67938 -1.17822,1.05558 -1.94303,1.05558 -1.36013,0 -2.22278,-0.77721 -2.22278,-2.46531 v -3.52089 h 0.98393 v 3.24253 c 0,1.34772 0.49747,1.84519 1.44557,1.84519 0.9343,0 1.74873,-0.81304 1.74873,-2.22278 v -2.86494 h 0.98391"
     id="path1187"
     style="stroke-width:0.352778" /><path
     fill-rule="nonzero"
     fill="#4c379b"
     fill-opacity="1"
     d="m 45.147287,35.590587 v 3.50849 h -0.98392 v -3.23012 c 0,-1.38356 -0.58291,-1.8452 -1.44557,-1.8452 -1.11758,0 -1.85759,0.78962 -1.85759,2.12494 v 2.95038 h -0.98392 v -5.91317 h 0.98392 v 1.03215 h 0.0124 c 0.49747,-0.70417 1.27468,-1.10518 2.14836,-1.10518 1.27606,0 2.12631,0.78961 2.12631,2.47771"
     id="path1189"
     style="stroke-width:0.352778" /><path
     fill-rule="nonzero"
     fill="#4c379b"
     fill-opacity="1"
     d="m 46.514297,36.148697 c 0,-1.78594 1.22645,-3.03582 2.96278,-3.03582 0.88608,0 1.79697,0.3638 2.37987,1.05558 l -0.67937,0.59531 c -0.36518,-0.44924 -0.94809,-0.74001 -1.65226,-0.74001 -1.18925,0 -2.01608,0.87368 -2.01608,2.12494 0,1.26228 0.82683,2.12493 2.01608,2.12493 0.69315,0 1.31189,-0.30317 1.67569,-0.70418 l 0.68075,0.60772 c -0.49747,0.5581 -1.38493,0.99494 -2.4405,0.99494 -1.70051,0 -2.92696,-1.22645 -2.92696,-3.02341"
     id="path1191"
     style="stroke-width:0.352778" /><path
     fill-rule="nonzero"
     fill="#4c379b"
     fill-opacity="1"
     d="m 53.108207,33.185907 h 0.98254 v 5.91317 h -0.98254 z m -0.2067,-1.78593 c 0,-0.37621 0.30317,-0.69178 0.70417,-0.69178 0.38861,0 0.70418,0.31557 0.70418,0.69178 0,0.3886 -0.31557,0.69177 -0.70418,0.69177 -0.401,0 -0.70417,-0.30317 -0.70417,-0.69177"
     id="path1193"
     style="stroke-width:0.352778" /><path
     fill-rule="nonzero"
     fill="#4c379b"
     fill-opacity="1"
     d="m 55.962127,30.478067 h 0.98392 v 8.62238 h -0.98392 v -8.62238"
     id="path1195"
     style="stroke-width:0.352778" /><path
     fill-rule="nonzero"
     fill="#244ba1"
     fill-opacity="1"
     d="M 66.946467,1.5998972 H 126.94488 V 41.600207 H 66.946467 V 1.5998972"
     id="path1197"
     style="stroke-width:0.352778;fill:#033399;fill-opacity:1" /><path
     fill-rule="nonzero"
     fill="#f4f020"
     fill-opacity="1"
     d="m 95.667537,10.314607 1.26504,-0.9232798 1.26642,0.9232798 -0.48231,-1.4937898 1.28708,-0.92329 h -1.58612 l -0.48507,-1.51308 -0.48506,1.51446 -1.58337,-0.001 1.28433,0.92328 -0.48094,1.4937998"
     id="path1199"
     style="stroke-width:0.352778;fill:#ffcc00;fill-opacity:1" /><path
     fill-rule="nonzero"
     fill="#f4f020"
     fill-opacity="1"
     d="m 89.114967,12.075747 1.26642,-0.92467 1.26504,0.92467 -0.48094,-1.49517 1.28572,-0.9232898 h -1.58613 l -0.48507,-1.51446 -0.48507,1.51584 -1.58336,-10e-4 1.28433,0.9232898 -0.48094,1.49517"
     id="path1201"
     style="stroke-width:0.352778;fill:#ffcc00;fill-opacity:1" /><path
     fill-rule="nonzero"
     fill="#f4f020"
     fill-opacity="1"
     d="m 85.587187,12.948037 -0.48506,1.51585 -1.58475,-10e-4 1.28571,0.92329 -0.48231,1.49379 1.26641,-0.92329 1.26642,0.92329 -0.48231,-1.49379 1.28571,-0.92329 h -1.58475 l -0.48507,-1.51447"
     id="path1203"
     style="stroke-width:0.352778;fill:#ffcc00;fill-opacity:1" /><path
     fill-rule="nonzero"
     fill="#f4f020"
     fill-opacity="1"
     d="m 83.828817,22.499227 1.26504,0.92466 -0.48093,-1.49517 1.28432,-0.92329 h -1.58336 l -0.48507,-1.51446 -0.48507,1.51722 -1.58474,-0.003 1.2857,0.92328 -0.48231,1.49518 1.26642,-0.92467"
     id="path1205"
     style="stroke-width:0.352778;fill:#ffcc00;fill-opacity:1" /><path
     fill-rule="nonzero"
     fill="#f4f020"
     fill-opacity="1"
     d="m 86.072257,27.569027 -0.48507,-1.51446 -0.48506,1.51584 -1.58475,-10e-4 1.28571,0.92329 -0.48231,1.49517 1.26641,-0.92604 1.26642,0.92604 -0.48231,-1.49517 1.28571,-0.92329 h -1.58475"
     id="path1207"
     style="stroke-width:0.352778;fill:#ffcc00;fill-opacity:1" /><path
     fill-rule="nonzero"
     fill="#f4f020"
     fill-opacity="1"
     d="m 90.876107,32.371487 -0.48507,-1.5117 -0.48507,1.51308 -1.58475,-10e-4 1.28572,0.92466 -0.48232,1.49379 1.26642,-0.92466 1.26504,0.92466 -0.48094,-1.49379 1.28571,-0.92467 h -1.58474"
     id="path1209"
     style="stroke-width:0.352778;fill:#ffcc00;fill-opacity:1" /><path
     fill-rule="nonzero"
     fill="#f4f020"
     fill-opacity="1"
     d="m 97.419027,34.111957 -0.48507,-1.51309 -0.48369,1.51446 -1.58612,-10e-4 1.28571,0.92466 -0.48094,1.4938 1.26642,-0.92467 1.26504,0.92467 -0.48231,-1.4938 1.2857,-0.92466 h -1.58474"
     id="path1211"
     style="stroke-width:0.352778;fill:#ffcc00;fill-opacity:1" /><path
     fill-rule="nonzero"
     fill="#f4f020"
     fill-opacity="1"
     d="m 103.96196,32.371487 -0.48369,-1.5117 -0.48645,1.51308 -1.58337,-10e-4 1.28434,0.92466 -0.48094,1.49379 1.26642,-0.92466 1.26641,0.92466 -0.48231,-1.49379 1.28571,-0.92467 h -1.58612"
     id="path1213"
     style="stroke-width:0.352778;fill:#ffcc00;fill-opacity:1" /><path
     fill-rule="nonzero"
     fill="#f4f020"
     fill-opacity="1"
     d="m 108.76718,27.569027 -0.48645,-1.51446 -0.48507,1.51584 -1.58337,-10e-4 1.28571,0.92329 -0.48231,1.49517 1.26504,-0.92604 1.26642,0.92604 -0.48232,-1.49517 1.28571,-0.92329 h -1.58336"
     id="path1215"
     style="stroke-width:0.352778;fill:#ffcc00;fill-opacity:1" /><path
     fill-rule="nonzero"
     fill="#f4f020"
     fill-opacity="1"
     d="m 112.09101,20.987517 h -1.58475 l -0.48645,-1.51446 -0.48369,1.51584 -1.58474,-0.001 1.28571,0.92329 -0.48094,1.49517 1.26366,-0.92604 1.26642,0.92604 -0.48093,-1.49517 1.28571,-0.92329"
     id="path1217"
     style="stroke-width:0.352778;fill:#ffcc00;fill-opacity:1" /><path
     fill-rule="nonzero"
     fill="#f4f020"
     fill-opacity="1"
     d="m 107.01569,16.860297 1.26504,-0.92467 1.26642,0.92467 -0.48232,-1.4938 1.28571,-0.92328 h -1.58336 l -0.48645,-1.51309 -0.48507,1.51584 -1.58337,-0.003 1.28571,0.92329 -0.48231,1.49379"
     id="path1219"
     style="stroke-width:0.352778;fill:#ffcc00;fill-opacity:1" /><path
     fill-rule="nonzero"
     fill="#f4f020"
     fill-opacity="1"
     d="m 103.49618,8.1441972 -0.48369,1.51585 -1.58474,-0.003 1.28295,0.9260498 -0.48093,1.49379 1.26779,-0.92604 1.26504,0.92604 -0.48094,-1.49379 1.28571,-0.9260498 h -1.5875 l -0.48369,-1.51309"
     id="path1221"
     style="stroke-width:0.352778;fill:#ffcc00;fill-opacity:1" /></svg>
